<mxfile host="app.diagrams.net" modified="2020-07-21T11:19:20.551Z" agent="5.0 (Windows NT 10.0; Win64; x64) AppleWebKit/537.36 (KHTML, like Gecko) Chrome/83.0.4103.116 Safari/537.36" etag="7FM_LlEPKAy1eM2ZJs4v" version="13.4.8" type="github">
  <diagram id="T-ORzZ9KdeRtovZSjIdl" name="Page-1">
    <mxGraphModel dx="2249" dy="762" grid="1" gridSize="10" guides="1" tooltips="1" connect="1" arrows="1" fold="1" page="1" pageScale="1" pageWidth="827" pageHeight="1169" math="0" shadow="0">
      <root>
        <mxCell id="0" />
        <mxCell id="1" parent="0" />
        <mxCell id="8D8bKTPe_nqyVJf1hXeh-1" value="&lt;h1&gt;&lt;font style=&quot;font-size: 18px&quot;&gt;cls&lt;/font&gt;&lt;/h1&gt;" style="whiteSpace=wrap;html=1;aspect=fixed;fillColor=#ffe6cc;strokeColor=#d79b00;" parent="1" vertex="1">
          <mxGeometry x="70" y="50" width="30" height="30" as="geometry" />
        </mxCell>
        <mxCell id="8D8bKTPe_nqyVJf1hXeh-30" style="edgeStyle=orthogonalEdgeStyle;rounded=0;orthogonalLoop=1;jettySize=auto;html=1;exitX=0.5;exitY=1;exitDx=0;exitDy=0;fillColor=#ffe6cc;strokeColor=#d79b00;" parent="1" source="8D8bKTPe_nqyVJf1hXeh-2" edge="1">
          <mxGeometry relative="1" as="geometry">
            <mxPoint x="125" y="210" as="targetPoint" />
          </mxGeometry>
        </mxCell>
        <mxCell id="8D8bKTPe_nqyVJf1hXeh-2" value="&lt;h1&gt;&lt;font style=&quot;font-size: 18px&quot;&gt;开&lt;/font&gt;&lt;/h1&gt;" style="whiteSpace=wrap;html=1;aspect=fixed;fillColor=#ffe6cc;strokeColor=#d79b00;" parent="1" vertex="1">
          <mxGeometry x="110" y="50" width="30" height="30" as="geometry" />
        </mxCell>
        <mxCell id="8D8bKTPe_nqyVJf1hXeh-3" value="&lt;h1&gt;&lt;font style=&quot;font-size: 18px&quot;&gt;速&lt;/font&gt;&lt;/h1&gt;" style="whiteSpace=wrap;html=1;aspect=fixed;fillColor=#ffe6cc;strokeColor=#d79b00;" parent="1" vertex="1">
          <mxGeometry x="590" y="50" width="30" height="30" as="geometry" />
        </mxCell>
        <mxCell id="8D8bKTPe_nqyVJf1hXeh-20" style="edgeStyle=orthogonalEdgeStyle;rounded=0;orthogonalLoop=1;jettySize=auto;html=1;exitX=0;exitY=0.5;exitDx=0;exitDy=0;fillColor=#ffe6cc;strokeColor=#d79b00;" parent="1" source="8D8bKTPe_nqyVJf1hXeh-5" edge="1">
          <mxGeometry relative="1" as="geometry">
            <mxPoint x="250" y="70" as="targetPoint" />
          </mxGeometry>
        </mxCell>
        <mxCell id="8D8bKTPe_nqyVJf1hXeh-34" style="edgeStyle=orthogonalEdgeStyle;rounded=0;orthogonalLoop=1;jettySize=auto;html=1;exitX=0.5;exitY=1;exitDx=0;exitDy=0;fillColor=#ffe6cc;strokeColor=#d79b00;" parent="1" source="8D8bKTPe_nqyVJf1hXeh-4" edge="1">
          <mxGeometry relative="1" as="geometry">
            <mxPoint x="205" y="210" as="targetPoint" />
          </mxGeometry>
        </mxCell>
        <mxCell id="8D8bKTPe_nqyVJf1hXeh-4" value="&lt;h1&gt;&lt;font style=&quot;font-size: 18px&quot;&gt;低&lt;/font&gt;&lt;/h1&gt;" style="whiteSpace=wrap;html=1;aspect=fixed;fillColor=#ffe6cc;strokeColor=#d79b00;" parent="1" vertex="1">
          <mxGeometry x="190" y="50" width="30" height="30" as="geometry" />
        </mxCell>
        <mxCell id="8D8bKTPe_nqyVJf1hXeh-36" style="edgeStyle=orthogonalEdgeStyle;rounded=0;orthogonalLoop=1;jettySize=auto;html=1;fillColor=#ffe6cc;strokeColor=#d79b00;" parent="1" source="8D8bKTPe_nqyVJf1hXeh-6" edge="1">
          <mxGeometry relative="1" as="geometry">
            <mxPoint x="285" y="210" as="targetPoint" />
          </mxGeometry>
        </mxCell>
        <mxCell id="8D8bKTPe_nqyVJf1hXeh-6" value="&lt;h1&gt;&lt;font style=&quot;font-size: 18px&quot;&gt;耗&lt;/font&gt;&lt;/h1&gt;" style="whiteSpace=wrap;html=1;aspect=fixed;fillColor=#ffe6cc;strokeColor=#d79b00;" parent="1" vertex="1">
          <mxGeometry x="270" y="50" width="30" height="30" as="geometry" />
        </mxCell>
        <mxCell id="8D8bKTPe_nqyVJf1hXeh-37" style="edgeStyle=orthogonalEdgeStyle;rounded=0;orthogonalLoop=1;jettySize=auto;html=1;fillColor=#ffe6cc;strokeColor=#d79b00;" parent="1" source="8D8bKTPe_nqyVJf1hXeh-7" edge="1">
          <mxGeometry relative="1" as="geometry">
            <mxPoint x="325" y="210" as="targetPoint" />
          </mxGeometry>
        </mxCell>
        <mxCell id="8D8bKTPe_nqyVJf1hXeh-7" value="&lt;h1&gt;&lt;font style=&quot;font-size: 18px&quot;&gt;模&lt;/font&gt;&lt;/h1&gt;" style="whiteSpace=wrap;html=1;aspect=fixed;fillColor=#ffe6cc;strokeColor=#d79b00;" parent="1" vertex="1">
          <mxGeometry x="310" y="50" width="30" height="30" as="geometry" />
        </mxCell>
        <mxCell id="8D8bKTPe_nqyVJf1hXeh-38" style="edgeStyle=orthogonalEdgeStyle;rounded=0;orthogonalLoop=1;jettySize=auto;html=1;fillColor=#ffe6cc;strokeColor=#d79b00;" parent="1" source="8D8bKTPe_nqyVJf1hXeh-8" edge="1">
          <mxGeometry relative="1" as="geometry">
            <mxPoint x="365" y="210" as="targetPoint" />
          </mxGeometry>
        </mxCell>
        <mxCell id="8D8bKTPe_nqyVJf1hXeh-8" value="&lt;h1&gt;&lt;font style=&quot;font-size: 18px&quot;&gt;式&lt;/font&gt;&lt;/h1&gt;" style="whiteSpace=wrap;html=1;aspect=fixed;fillColor=#ffe6cc;strokeColor=#d79b00;" parent="1" vertex="1">
          <mxGeometry x="350" y="50" width="30" height="30" as="geometry" />
        </mxCell>
        <mxCell id="8D8bKTPe_nqyVJf1hXeh-39" style="edgeStyle=orthogonalEdgeStyle;rounded=0;orthogonalLoop=1;jettySize=auto;html=1;fillColor=#ffe6cc;strokeColor=#d79b00;" parent="1" source="8D8bKTPe_nqyVJf1hXeh-9" edge="1">
          <mxGeometry relative="1" as="geometry">
            <mxPoint x="405" y="210" as="targetPoint" />
          </mxGeometry>
        </mxCell>
        <mxCell id="8D8bKTPe_nqyVJf1hXeh-9" value="&lt;h1&gt;&lt;font style=&quot;font-size: 18px&quot;&gt;导&lt;/font&gt;&lt;/h1&gt;" style="whiteSpace=wrap;html=1;aspect=fixed;fillColor=#ffe6cc;strokeColor=#d79b00;" parent="1" vertex="1">
          <mxGeometry x="390" y="50" width="30" height="30" as="geometry" />
        </mxCell>
        <mxCell id="8D8bKTPe_nqyVJf1hXeh-40" style="edgeStyle=orthogonalEdgeStyle;rounded=0;orthogonalLoop=1;jettySize=auto;html=1;fillColor=#ffe6cc;strokeColor=#d79b00;" parent="1" source="8D8bKTPe_nqyVJf1hXeh-10" edge="1">
          <mxGeometry relative="1" as="geometry">
            <mxPoint x="445" y="210" as="targetPoint" />
          </mxGeometry>
        </mxCell>
        <mxCell id="8D8bKTPe_nqyVJf1hXeh-10" value="&lt;h1&gt;&lt;font style=&quot;font-size: 18px&quot;&gt;致&lt;/font&gt;&lt;/h1&gt;" style="whiteSpace=wrap;html=1;aspect=fixed;fillColor=#ffe6cc;strokeColor=#d79b00;" parent="1" vertex="1">
          <mxGeometry x="430" y="50" width="30" height="30" as="geometry" />
        </mxCell>
        <mxCell id="8D8bKTPe_nqyVJf1hXeh-41" style="edgeStyle=orthogonalEdgeStyle;rounded=0;orthogonalLoop=1;jettySize=auto;html=1;fillColor=#ffe6cc;strokeColor=#d79b00;" parent="1" source="8D8bKTPe_nqyVJf1hXeh-11" edge="1">
          <mxGeometry relative="1" as="geometry">
            <mxPoint x="484" y="210" as="targetPoint" />
          </mxGeometry>
        </mxCell>
        <mxCell id="8D8bKTPe_nqyVJf1hXeh-11" value="&lt;h1&gt;&lt;font style=&quot;font-size: 18px&quot;&gt;u&lt;/font&gt;&lt;/h1&gt;" style="whiteSpace=wrap;html=1;aspect=fixed;fillColor=#ffe6cc;strokeColor=#d79b00;" parent="1" vertex="1">
          <mxGeometry x="469" y="50" width="30" height="30" as="geometry" />
        </mxCell>
        <mxCell id="8D8bKTPe_nqyVJf1hXeh-42" style="edgeStyle=orthogonalEdgeStyle;rounded=0;orthogonalLoop=1;jettySize=auto;html=1;fillColor=#ffe6cc;strokeColor=#d79b00;" parent="1" source="8D8bKTPe_nqyVJf1hXeh-12" edge="1">
          <mxGeometry relative="1" as="geometry">
            <mxPoint x="525" y="210" as="targetPoint" />
          </mxGeometry>
        </mxCell>
        <mxCell id="8D8bKTPe_nqyVJf1hXeh-12" value="&lt;h1&gt;&lt;font style=&quot;font-size: 18px&quot;&gt;d&lt;/font&gt;&lt;/h1&gt;" style="whiteSpace=wrap;html=1;aspect=fixed;fillColor=#ffe6cc;strokeColor=#d79b00;" parent="1" vertex="1">
          <mxGeometry x="510" y="50" width="30" height="30" as="geometry" />
        </mxCell>
        <mxCell id="8D8bKTPe_nqyVJf1hXeh-43" style="edgeStyle=orthogonalEdgeStyle;rounded=0;orthogonalLoop=1;jettySize=auto;html=1;fillColor=#ffe6cc;strokeColor=#d79b00;" parent="1" source="8D8bKTPe_nqyVJf1hXeh-13" edge="1">
          <mxGeometry relative="1" as="geometry">
            <mxPoint x="565" y="210" as="targetPoint" />
          </mxGeometry>
        </mxCell>
        <mxCell id="8D8bKTPe_nqyVJf1hXeh-13" value="&lt;h1&gt;&lt;font style=&quot;font-size: 18px&quot;&gt;p&lt;/font&gt;&lt;/h1&gt;" style="whiteSpace=wrap;html=1;aspect=fixed;fillColor=#ffe6cc;strokeColor=#d79b00;" parent="1" vertex="1">
          <mxGeometry x="550" y="50" width="30" height="30" as="geometry" />
        </mxCell>
        <mxCell id="8D8bKTPe_nqyVJf1hXeh-45" style="edgeStyle=orthogonalEdgeStyle;rounded=0;orthogonalLoop=1;jettySize=auto;html=1;fillColor=#ffe6cc;strokeColor=#d79b00;strokeWidth=2;" parent="1" source="8D8bKTPe_nqyVJf1hXeh-14" edge="1">
          <mxGeometry relative="1" as="geometry">
            <mxPoint x="645" y="210" as="targetPoint" />
          </mxGeometry>
        </mxCell>
        <mxCell id="8D8bKTPe_nqyVJf1hXeh-14" value="&lt;h1&gt;&lt;font style=&quot;font-size: 18px&quot;&gt;率&lt;/font&gt;&lt;/h1&gt;" style="whiteSpace=wrap;html=1;aspect=fixed;fillColor=#ffe6cc;strokeColor=#d79b00;" parent="1" vertex="1">
          <mxGeometry x="630" y="50" width="30" height="30" as="geometry" />
        </mxCell>
        <mxCell id="8D8bKTPe_nqyVJf1hXeh-15" value="&lt;h1&gt;&lt;font style=&quot;font-size: 18px&quot;&gt;低&lt;/font&gt;&lt;/h1&gt;" style="whiteSpace=wrap;html=1;aspect=fixed;fillColor=#ffe6cc;strokeColor=#d79b00;" parent="1" vertex="1">
          <mxGeometry x="670" y="50" width="30" height="30" as="geometry" />
        </mxCell>
        <mxCell id="8D8bKTPe_nqyVJf1hXeh-16" value="&lt;h1&gt;&lt;font style=&quot;font-size: 18px&quot;&gt;sep&lt;/font&gt;&lt;/h1&gt;" style="whiteSpace=wrap;html=1;aspect=fixed;fillColor=#ffe6cc;strokeColor=#d79b00;" parent="1" vertex="1">
          <mxGeometry x="710" y="50" width="30" height="30" as="geometry" />
        </mxCell>
        <mxCell id="8D8bKTPe_nqyVJf1hXeh-17" style="edgeStyle=orthogonalEdgeStyle;rounded=0;orthogonalLoop=1;jettySize=auto;html=1;exitX=1;exitY=0.75;exitDx=0;exitDy=0;entryX=1;entryY=0.5;entryDx=0;entryDy=0;fillColor=#ffe6cc;strokeColor=#d79b00;" parent="1" source="8D8bKTPe_nqyVJf1hXeh-8" target="8D8bKTPe_nqyVJf1hXeh-8" edge="1">
          <mxGeometry relative="1" as="geometry" />
        </mxCell>
        <mxCell id="8D8bKTPe_nqyVJf1hXeh-33" style="edgeStyle=orthogonalEdgeStyle;rounded=0;orthogonalLoop=1;jettySize=auto;html=1;exitX=0.5;exitY=1;exitDx=0;exitDy=0;fillColor=#ffe6cc;strokeColor=#d79b00;" parent="1" source="8D8bKTPe_nqyVJf1hXeh-19" edge="1">
          <mxGeometry relative="1" as="geometry">
            <mxPoint x="165" y="210" as="targetPoint" />
          </mxGeometry>
        </mxCell>
        <mxCell id="8D8bKTPe_nqyVJf1hXeh-19" value="&lt;h1&gt;&lt;font style=&quot;font-size: 18px&quot;&gt;启&lt;/font&gt;&lt;/h1&gt;" style="whiteSpace=wrap;html=1;aspect=fixed;fillColor=#ffe6cc;strokeColor=#d79b00;" parent="1" vertex="1">
          <mxGeometry x="150" y="50" width="30" height="30" as="geometry" />
        </mxCell>
        <mxCell id="8D8bKTPe_nqyVJf1hXeh-35" style="edgeStyle=orthogonalEdgeStyle;rounded=0;orthogonalLoop=1;jettySize=auto;html=1;fillColor=#ffe6cc;strokeColor=#d79b00;" parent="1" source="8D8bKTPe_nqyVJf1hXeh-5" edge="1">
          <mxGeometry relative="1" as="geometry">
            <mxPoint x="245" y="210" as="targetPoint" />
          </mxGeometry>
        </mxCell>
        <mxCell id="8D8bKTPe_nqyVJf1hXeh-5" value="&lt;h1&gt;&lt;font style=&quot;font-size: 18px&quot;&gt;功&lt;/font&gt;&lt;/h1&gt;" style="whiteSpace=wrap;html=1;aspect=fixed;fillColor=#ffe6cc;strokeColor=#d79b00;" parent="1" vertex="1">
          <mxGeometry x="230" y="50" width="30" height="30" as="geometry" />
        </mxCell>
        <mxCell id="8D8bKTPe_nqyVJf1hXeh-23" value="&lt;h1&gt;&lt;font style=&quot;font-size: 18px&quot;&gt;cls&lt;/font&gt;&lt;/h1&gt;" style="whiteSpace=wrap;html=1;aspect=fixed;fillColor=#ffe6cc;strokeColor=#d79b00;" parent="1" vertex="1">
          <mxGeometry x="70" y="50" width="30" height="30" as="geometry" />
        </mxCell>
        <mxCell id="8D8bKTPe_nqyVJf1hXeh-24" value="&lt;h1&gt;&lt;font style=&quot;font-size: 18px&quot;&gt;cls&lt;/font&gt;&lt;/h1&gt;" style="whiteSpace=wrap;html=1;aspect=fixed;fillColor=#ffe6cc;strokeColor=#d79b00;" parent="1" vertex="1">
          <mxGeometry x="70" y="50" width="30" height="30" as="geometry" />
        </mxCell>
        <mxCell id="8D8bKTPe_nqyVJf1hXeh-27" style="edgeStyle=orthogonalEdgeStyle;rounded=0;orthogonalLoop=1;jettySize=auto;html=1;exitX=0.5;exitY=1;exitDx=0;exitDy=0;fillColor=#ffe6cc;strokeColor=#d79b00;strokeWidth=2;" parent="1" source="8D8bKTPe_nqyVJf1hXeh-24" edge="1">
          <mxGeometry relative="1" as="geometry">
            <mxPoint x="85" y="210" as="targetPoint" />
          </mxGeometry>
        </mxCell>
        <mxCell id="8D8bKTPe_nqyVJf1hXeh-62" style="edgeStyle=orthogonalEdgeStyle;rounded=0;orthogonalLoop=1;jettySize=auto;html=1;fillColor=#ffe6cc;strokeColor=#d79b00;" parent="1" edge="1">
          <mxGeometry relative="1" as="geometry">
            <mxPoint x="565" y="210" as="targetPoint" />
            <mxPoint x="565" y="80" as="sourcePoint" />
          </mxGeometry>
        </mxCell>
        <mxCell id="8D8bKTPe_nqyVJf1hXeh-63" style="edgeStyle=orthogonalEdgeStyle;rounded=0;orthogonalLoop=1;jettySize=auto;html=1;fillColor=#ffe6cc;strokeColor=#d79b00;" parent="1" edge="1">
          <mxGeometry relative="1" as="geometry">
            <mxPoint x="525" y="210" as="targetPoint" />
            <mxPoint x="525" y="80" as="sourcePoint" />
          </mxGeometry>
        </mxCell>
        <mxCell id="8D8bKTPe_nqyVJf1hXeh-64" style="edgeStyle=orthogonalEdgeStyle;rounded=0;orthogonalLoop=1;jettySize=auto;html=1;fillColor=#ffe6cc;strokeColor=#d79b00;" parent="1" edge="1">
          <mxGeometry relative="1" as="geometry">
            <mxPoint x="484" y="210" as="targetPoint" />
            <mxPoint x="484" y="80" as="sourcePoint" />
          </mxGeometry>
        </mxCell>
        <mxCell id="8D8bKTPe_nqyVJf1hXeh-65" style="edgeStyle=orthogonalEdgeStyle;rounded=0;orthogonalLoop=1;jettySize=auto;html=1;fillColor=#ffe6cc;strokeColor=#d79b00;" parent="1" edge="1">
          <mxGeometry relative="1" as="geometry">
            <mxPoint x="445" y="210" as="targetPoint" />
            <mxPoint x="445" y="80" as="sourcePoint" />
          </mxGeometry>
        </mxCell>
        <mxCell id="8D8bKTPe_nqyVJf1hXeh-66" style="edgeStyle=orthogonalEdgeStyle;rounded=0;orthogonalLoop=1;jettySize=auto;html=1;fillColor=#ffe6cc;strokeColor=#d79b00;" parent="1" edge="1">
          <mxGeometry relative="1" as="geometry">
            <mxPoint x="405" y="210" as="targetPoint" />
            <mxPoint x="405" y="80" as="sourcePoint" />
          </mxGeometry>
        </mxCell>
        <mxCell id="8D8bKTPe_nqyVJf1hXeh-67" style="edgeStyle=orthogonalEdgeStyle;rounded=0;orthogonalLoop=1;jettySize=auto;html=1;fillColor=#ffe6cc;strokeColor=#d79b00;" parent="1" edge="1">
          <mxGeometry relative="1" as="geometry">
            <mxPoint x="365" y="210" as="targetPoint" />
            <mxPoint x="365" y="80" as="sourcePoint" />
          </mxGeometry>
        </mxCell>
        <mxCell id="8D8bKTPe_nqyVJf1hXeh-68" style="edgeStyle=orthogonalEdgeStyle;rounded=0;orthogonalLoop=1;jettySize=auto;html=1;fillColor=#ffe6cc;strokeColor=#d79b00;" parent="1" edge="1">
          <mxGeometry relative="1" as="geometry">
            <mxPoint x="325" y="210" as="targetPoint" />
            <mxPoint x="325" y="80" as="sourcePoint" />
          </mxGeometry>
        </mxCell>
        <mxCell id="8D8bKTPe_nqyVJf1hXeh-69" style="edgeStyle=orthogonalEdgeStyle;rounded=0;orthogonalLoop=1;jettySize=auto;html=1;fillColor=#ffe6cc;strokeColor=#d79b00;" parent="1" edge="1">
          <mxGeometry relative="1" as="geometry">
            <mxPoint x="285" y="210" as="targetPoint" />
            <mxPoint x="285" y="80" as="sourcePoint" />
          </mxGeometry>
        </mxCell>
        <mxCell id="8D8bKTPe_nqyVJf1hXeh-70" style="edgeStyle=orthogonalEdgeStyle;rounded=0;orthogonalLoop=1;jettySize=auto;html=1;fillColor=#ffe6cc;strokeColor=#d79b00;" parent="1" edge="1">
          <mxGeometry relative="1" as="geometry">
            <mxPoint x="245" y="210" as="targetPoint" />
            <mxPoint x="245" y="80" as="sourcePoint" />
          </mxGeometry>
        </mxCell>
        <mxCell id="8D8bKTPe_nqyVJf1hXeh-71" style="edgeStyle=orthogonalEdgeStyle;rounded=0;orthogonalLoop=1;jettySize=auto;html=1;exitX=0.5;exitY=1;exitDx=0;exitDy=0;fillColor=#ffe6cc;strokeColor=#d79b00;" parent="1" edge="1">
          <mxGeometry relative="1" as="geometry">
            <mxPoint x="205" y="210" as="targetPoint" />
            <mxPoint x="205" y="80" as="sourcePoint" />
          </mxGeometry>
        </mxCell>
        <mxCell id="8D8bKTPe_nqyVJf1hXeh-72" style="edgeStyle=orthogonalEdgeStyle;rounded=0;orthogonalLoop=1;jettySize=auto;html=1;exitX=0.5;exitY=1;exitDx=0;exitDy=0;fillColor=#ffe6cc;strokeColor=#d79b00;" parent="1" edge="1">
          <mxGeometry relative="1" as="geometry">
            <mxPoint x="165" y="210" as="targetPoint" />
            <mxPoint x="165" y="80" as="sourcePoint" />
          </mxGeometry>
        </mxCell>
        <mxCell id="8D8bKTPe_nqyVJf1hXeh-73" style="edgeStyle=orthogonalEdgeStyle;rounded=0;orthogonalLoop=1;jettySize=auto;html=1;fillColor=#ffe6cc;strokeColor=#d79b00;strokeWidth=2;" parent="1" edge="1">
          <mxGeometry relative="1" as="geometry">
            <mxPoint x="724.5" y="210" as="targetPoint" />
            <mxPoint x="724.5" y="80" as="sourcePoint" />
            <Array as="points">
              <mxPoint x="724.5" y="140" />
              <mxPoint x="724.5" y="140" />
            </Array>
          </mxGeometry>
        </mxCell>
        <mxCell id="8D8bKTPe_nqyVJf1hXeh-74" style="edgeStyle=orthogonalEdgeStyle;rounded=0;orthogonalLoop=1;jettySize=auto;html=1;fillColor=#ffe6cc;strokeColor=#d79b00;strokeWidth=2;" parent="1" edge="1">
          <mxGeometry relative="1" as="geometry">
            <mxPoint x="684.5" y="210" as="targetPoint" />
            <mxPoint x="684.5" y="80" as="sourcePoint" />
          </mxGeometry>
        </mxCell>
        <mxCell id="8D8bKTPe_nqyVJf1hXeh-75" style="edgeStyle=orthogonalEdgeStyle;rounded=0;orthogonalLoop=1;jettySize=auto;html=1;fillColor=#ffe6cc;strokeColor=#d79b00;strokeWidth=2;" parent="1" edge="1">
          <mxGeometry relative="1" as="geometry">
            <mxPoint x="604.5" y="210" as="targetPoint" />
            <mxPoint x="604.5" y="80" as="sourcePoint" />
            <Array as="points">
              <mxPoint x="604.5" y="120" />
              <mxPoint x="604.5" y="120" />
            </Array>
          </mxGeometry>
        </mxCell>
        <mxCell id="8D8bKTPe_nqyVJf1hXeh-76" style="edgeStyle=orthogonalEdgeStyle;rounded=0;orthogonalLoop=1;jettySize=auto;html=1;fillColor=#ffe6cc;strokeColor=#d79b00;strokeWidth=2;" parent="1" edge="1">
          <mxGeometry relative="1" as="geometry">
            <mxPoint x="565" y="210" as="targetPoint" />
            <mxPoint x="565" y="80" as="sourcePoint" />
          </mxGeometry>
        </mxCell>
        <mxCell id="8D8bKTPe_nqyVJf1hXeh-77" style="edgeStyle=orthogonalEdgeStyle;rounded=0;orthogonalLoop=1;jettySize=auto;html=1;fillColor=#ffe6cc;strokeColor=#d79b00;strokeWidth=2;" parent="1" edge="1">
          <mxGeometry relative="1" as="geometry">
            <mxPoint x="525" y="210" as="targetPoint" />
            <mxPoint x="525" y="80" as="sourcePoint" />
          </mxGeometry>
        </mxCell>
        <mxCell id="8D8bKTPe_nqyVJf1hXeh-78" style="edgeStyle=orthogonalEdgeStyle;rounded=0;orthogonalLoop=1;jettySize=auto;html=1;fillColor=#ffe6cc;strokeColor=#d79b00;strokeWidth=2;" parent="1" edge="1">
          <mxGeometry relative="1" as="geometry">
            <mxPoint x="484" y="210" as="targetPoint" />
            <mxPoint x="484" y="80" as="sourcePoint" />
          </mxGeometry>
        </mxCell>
        <mxCell id="8D8bKTPe_nqyVJf1hXeh-79" style="edgeStyle=orthogonalEdgeStyle;rounded=0;orthogonalLoop=1;jettySize=auto;html=1;fillColor=#ffe6cc;strokeColor=#d79b00;strokeWidth=2;" parent="1" edge="1">
          <mxGeometry relative="1" as="geometry">
            <mxPoint x="445" y="210" as="targetPoint" />
            <mxPoint x="445" y="80" as="sourcePoint" />
          </mxGeometry>
        </mxCell>
        <mxCell id="8D8bKTPe_nqyVJf1hXeh-80" style="edgeStyle=orthogonalEdgeStyle;rounded=0;orthogonalLoop=1;jettySize=auto;html=1;fillColor=#ffe6cc;strokeColor=#d79b00;strokeWidth=2;" parent="1" edge="1">
          <mxGeometry relative="1" as="geometry">
            <mxPoint x="405" y="210" as="targetPoint" />
            <mxPoint x="405" y="80" as="sourcePoint" />
          </mxGeometry>
        </mxCell>
        <mxCell id="8D8bKTPe_nqyVJf1hXeh-81" style="edgeStyle=orthogonalEdgeStyle;rounded=0;orthogonalLoop=1;jettySize=auto;html=1;fillColor=#ffe6cc;strokeColor=#d79b00;strokeWidth=2;" parent="1" edge="1">
          <mxGeometry relative="1" as="geometry">
            <mxPoint x="365" y="210" as="targetPoint" />
            <mxPoint x="365" y="80" as="sourcePoint" />
          </mxGeometry>
        </mxCell>
        <mxCell id="8D8bKTPe_nqyVJf1hXeh-82" style="edgeStyle=orthogonalEdgeStyle;rounded=0;orthogonalLoop=1;jettySize=auto;html=1;fillColor=#ffe6cc;strokeColor=#d79b00;strokeWidth=2;" parent="1" edge="1">
          <mxGeometry relative="1" as="geometry">
            <mxPoint x="325" y="210" as="targetPoint" />
            <mxPoint x="325" y="80" as="sourcePoint" />
          </mxGeometry>
        </mxCell>
        <mxCell id="8D8bKTPe_nqyVJf1hXeh-83" style="edgeStyle=orthogonalEdgeStyle;rounded=0;orthogonalLoop=1;jettySize=auto;html=1;fillColor=#ffe6cc;strokeColor=#d79b00;strokeWidth=2;" parent="1" edge="1">
          <mxGeometry relative="1" as="geometry">
            <mxPoint x="285" y="210" as="targetPoint" />
            <mxPoint x="285" y="80" as="sourcePoint" />
          </mxGeometry>
        </mxCell>
        <mxCell id="8D8bKTPe_nqyVJf1hXeh-84" style="edgeStyle=orthogonalEdgeStyle;rounded=0;orthogonalLoop=1;jettySize=auto;html=1;fillColor=#ffe6cc;strokeColor=#d79b00;strokeWidth=2;" parent="1" edge="1">
          <mxGeometry relative="1" as="geometry">
            <mxPoint x="245" y="210" as="targetPoint" />
            <mxPoint x="245" y="80" as="sourcePoint" />
          </mxGeometry>
        </mxCell>
        <mxCell id="8D8bKTPe_nqyVJf1hXeh-85" style="edgeStyle=orthogonalEdgeStyle;rounded=0;orthogonalLoop=1;jettySize=auto;html=1;exitX=0.5;exitY=1;exitDx=0;exitDy=0;fillColor=#ffe6cc;strokeColor=#d79b00;strokeWidth=2;" parent="1" edge="1">
          <mxGeometry relative="1" as="geometry">
            <mxPoint x="205" y="210" as="targetPoint" />
            <mxPoint x="205" y="80" as="sourcePoint" />
          </mxGeometry>
        </mxCell>
        <mxCell id="8D8bKTPe_nqyVJf1hXeh-86" style="edgeStyle=orthogonalEdgeStyle;rounded=0;orthogonalLoop=1;jettySize=auto;html=1;exitX=0.5;exitY=1;exitDx=0;exitDy=0;fillColor=#ffe6cc;strokeColor=#d79b00;strokeWidth=2;" parent="1" edge="1">
          <mxGeometry relative="1" as="geometry">
            <mxPoint x="165" y="210" as="targetPoint" />
            <mxPoint x="165" y="80" as="sourcePoint" />
          </mxGeometry>
        </mxCell>
        <mxCell id="8D8bKTPe_nqyVJf1hXeh-87" style="edgeStyle=orthogonalEdgeStyle;rounded=0;orthogonalLoop=1;jettySize=auto;html=1;exitX=0.5;exitY=1;exitDx=0;exitDy=0;fillColor=#ffe6cc;strokeColor=#d79b00;strokeWidth=2;" parent="1" edge="1">
          <mxGeometry relative="1" as="geometry">
            <mxPoint x="125" y="210" as="targetPoint" />
            <mxPoint x="125" y="80" as="sourcePoint" />
          </mxGeometry>
        </mxCell>
        <mxCell id="8D8bKTPe_nqyVJf1hXeh-88" value="&lt;font style=&quot;font-size: 18px&quot;&gt;&lt;b&gt;Bert&lt;/b&gt;&lt;/font&gt;" style="rounded=0;whiteSpace=wrap;html=1;fillColor=#ffe6cc;strokeColor=#d79b00;" parent="1" vertex="1">
          <mxGeometry x="50" y="120" width="710" height="50" as="geometry" />
        </mxCell>
        <mxCell id="8D8bKTPe_nqyVJf1hXeh-89" value="" style="whiteSpace=wrap;html=1;aspect=fixed;fillColor=#ffe6cc;strokeColor=#d79b00;" parent="1" vertex="1">
          <mxGeometry x="70" y="210" width="30" height="30" as="geometry" />
        </mxCell>
        <mxCell id="8D8bKTPe_nqyVJf1hXeh-120" style="edgeStyle=orthogonalEdgeStyle;rounded=0;orthogonalLoop=1;jettySize=auto;html=1;strokeWidth=2;fillColor=#ffe6cc;strokeColor=#d79b00;" parent="1" source="8D8bKTPe_nqyVJf1hXeh-90" edge="1">
          <mxGeometry relative="1" as="geometry">
            <mxPoint x="125" y="440" as="targetPoint" />
          </mxGeometry>
        </mxCell>
        <mxCell id="8D8bKTPe_nqyVJf1hXeh-90" value="" style="whiteSpace=wrap;html=1;aspect=fixed;fillColor=#e1d5e7;strokeColor=#9673a6;" parent="1" vertex="1">
          <mxGeometry x="110" y="210" width="30" height="30" as="geometry" />
        </mxCell>
        <mxCell id="8D8bKTPe_nqyVJf1hXeh-121" style="edgeStyle=orthogonalEdgeStyle;rounded=0;orthogonalLoop=1;jettySize=auto;html=1;strokeWidth=2;fillColor=#ffe6cc;strokeColor=#d79b00;" parent="1" source="8D8bKTPe_nqyVJf1hXeh-91" edge="1">
          <mxGeometry relative="1" as="geometry">
            <mxPoint x="165" y="440" as="targetPoint" />
          </mxGeometry>
        </mxCell>
        <mxCell id="8D8bKTPe_nqyVJf1hXeh-91" value="" style="whiteSpace=wrap;html=1;aspect=fixed;fillColor=#e1d5e7;strokeColor=#9673a6;" parent="1" vertex="1">
          <mxGeometry x="150" y="210" width="30" height="30" as="geometry" />
        </mxCell>
        <mxCell id="8D8bKTPe_nqyVJf1hXeh-122" style="edgeStyle=orthogonalEdgeStyle;rounded=0;orthogonalLoop=1;jettySize=auto;html=1;strokeWidth=2;fillColor=#ffe6cc;strokeColor=#d79b00;" parent="1" source="8D8bKTPe_nqyVJf1hXeh-92" edge="1">
          <mxGeometry relative="1" as="geometry">
            <mxPoint x="205" y="440" as="targetPoint" />
          </mxGeometry>
        </mxCell>
        <mxCell id="8D8bKTPe_nqyVJf1hXeh-92" value="" style="whiteSpace=wrap;html=1;aspect=fixed;fillColor=#e1d5e7;strokeColor=#9673a6;" parent="1" vertex="1">
          <mxGeometry x="190" y="210" width="30" height="30" as="geometry" />
        </mxCell>
        <mxCell id="8D8bKTPe_nqyVJf1hXeh-123" style="edgeStyle=orthogonalEdgeStyle;rounded=0;orthogonalLoop=1;jettySize=auto;html=1;strokeWidth=2;fillColor=#ffe6cc;strokeColor=#d79b00;" parent="1" source="8D8bKTPe_nqyVJf1hXeh-93" edge="1">
          <mxGeometry relative="1" as="geometry">
            <mxPoint x="245" y="440" as="targetPoint" />
          </mxGeometry>
        </mxCell>
        <mxCell id="8D8bKTPe_nqyVJf1hXeh-93" value="" style="whiteSpace=wrap;html=1;aspect=fixed;fillColor=#e1d5e7;strokeColor=#9673a6;" parent="1" vertex="1">
          <mxGeometry x="230" y="210" width="30" height="30" as="geometry" />
        </mxCell>
        <mxCell id="8D8bKTPe_nqyVJf1hXeh-124" style="edgeStyle=orthogonalEdgeStyle;rounded=0;orthogonalLoop=1;jettySize=auto;html=1;strokeWidth=2;fillColor=#ffe6cc;strokeColor=#d79b00;" parent="1" source="8D8bKTPe_nqyVJf1hXeh-94" edge="1">
          <mxGeometry relative="1" as="geometry">
            <mxPoint x="285" y="440" as="targetPoint" />
          </mxGeometry>
        </mxCell>
        <mxCell id="8D8bKTPe_nqyVJf1hXeh-94" value="" style="whiteSpace=wrap;html=1;aspect=fixed;fillColor=#e1d5e7;strokeColor=#9673a6;" parent="1" vertex="1">
          <mxGeometry x="270" y="210" width="30" height="30" as="geometry" />
        </mxCell>
        <mxCell id="8D8bKTPe_nqyVJf1hXeh-138" style="edgeStyle=orthogonalEdgeStyle;rounded=0;orthogonalLoop=1;jettySize=auto;html=1;strokeWidth=2;fillColor=#fff2cc;strokeColor=#d6b656;" parent="1" source="8D8bKTPe_nqyVJf1hXeh-95" edge="1">
          <mxGeometry relative="1" as="geometry">
            <mxPoint x="325" y="440" as="targetPoint" />
          </mxGeometry>
        </mxCell>
        <mxCell id="8D8bKTPe_nqyVJf1hXeh-95" value="" style="whiteSpace=wrap;html=1;aspect=fixed;fillColor=#e1d5e7;strokeColor=#9673a6;" parent="1" vertex="1">
          <mxGeometry x="310" y="210" width="30" height="30" as="geometry" />
        </mxCell>
        <mxCell id="8D8bKTPe_nqyVJf1hXeh-126" style="edgeStyle=orthogonalEdgeStyle;rounded=0;orthogonalLoop=1;jettySize=auto;html=1;strokeWidth=2;fillColor=#ffe6cc;strokeColor=#d79b00;" parent="1" source="8D8bKTPe_nqyVJf1hXeh-96" edge="1">
          <mxGeometry relative="1" as="geometry">
            <mxPoint x="365" y="440" as="targetPoint" />
          </mxGeometry>
        </mxCell>
        <mxCell id="8D8bKTPe_nqyVJf1hXeh-96" value="" style="whiteSpace=wrap;html=1;aspect=fixed;fillColor=#e1d5e7;strokeColor=#9673a6;" parent="1" vertex="1">
          <mxGeometry x="350" y="210" width="30" height="30" as="geometry" />
        </mxCell>
        <mxCell id="8D8bKTPe_nqyVJf1hXeh-127" style="edgeStyle=orthogonalEdgeStyle;rounded=0;orthogonalLoop=1;jettySize=auto;html=1;strokeWidth=2;fillColor=#ffe6cc;strokeColor=#d79b00;" parent="1" source="8D8bKTPe_nqyVJf1hXeh-97" edge="1">
          <mxGeometry relative="1" as="geometry">
            <mxPoint x="405" y="440" as="targetPoint" />
          </mxGeometry>
        </mxCell>
        <mxCell id="8D8bKTPe_nqyVJf1hXeh-97" value="" style="whiteSpace=wrap;html=1;aspect=fixed;fillColor=#e1d5e7;strokeColor=#9673a6;" parent="1" vertex="1">
          <mxGeometry x="390" y="210" width="30" height="30" as="geometry" />
        </mxCell>
        <mxCell id="8D8bKTPe_nqyVJf1hXeh-128" style="edgeStyle=orthogonalEdgeStyle;rounded=0;orthogonalLoop=1;jettySize=auto;html=1;strokeWidth=2;fillColor=#ffe6cc;strokeColor=#d79b00;" parent="1" source="8D8bKTPe_nqyVJf1hXeh-98" edge="1">
          <mxGeometry relative="1" as="geometry">
            <mxPoint x="445" y="440" as="targetPoint" />
          </mxGeometry>
        </mxCell>
        <mxCell id="8D8bKTPe_nqyVJf1hXeh-98" value="" style="whiteSpace=wrap;html=1;aspect=fixed;fillColor=#e1d5e7;strokeColor=#9673a6;" parent="1" vertex="1">
          <mxGeometry x="430" y="210" width="30" height="30" as="geometry" />
        </mxCell>
        <mxCell id="8D8bKTPe_nqyVJf1hXeh-139" style="edgeStyle=orthogonalEdgeStyle;rounded=0;orthogonalLoop=1;jettySize=auto;html=1;strokeWidth=2;fillColor=#fff2cc;strokeColor=#d6b656;" parent="1" source="8D8bKTPe_nqyVJf1hXeh-99" edge="1">
          <mxGeometry relative="1" as="geometry">
            <mxPoint x="484" y="440" as="targetPoint" />
          </mxGeometry>
        </mxCell>
        <mxCell id="8D8bKTPe_nqyVJf1hXeh-99" value="" style="whiteSpace=wrap;html=1;aspect=fixed;fillColor=#e1d5e7;strokeColor=#9673a6;" parent="1" vertex="1">
          <mxGeometry x="469" y="210" width="30" height="30" as="geometry" />
        </mxCell>
        <mxCell id="8D8bKTPe_nqyVJf1hXeh-130" style="edgeStyle=orthogonalEdgeStyle;rounded=0;orthogonalLoop=1;jettySize=auto;html=1;strokeWidth=2;fillColor=#ffe6cc;strokeColor=#d79b00;" parent="1" source="8D8bKTPe_nqyVJf1hXeh-100" edge="1">
          <mxGeometry relative="1" as="geometry">
            <mxPoint x="525" y="440" as="targetPoint" />
          </mxGeometry>
        </mxCell>
        <mxCell id="8D8bKTPe_nqyVJf1hXeh-100" value="" style="whiteSpace=wrap;html=1;aspect=fixed;fillColor=#e1d5e7;strokeColor=#9673a6;" parent="1" vertex="1">
          <mxGeometry x="510" y="210" width="30" height="30" as="geometry" />
        </mxCell>
        <mxCell id="8D8bKTPe_nqyVJf1hXeh-131" style="edgeStyle=orthogonalEdgeStyle;rounded=0;orthogonalLoop=1;jettySize=auto;html=1;strokeWidth=2;fillColor=#ffe6cc;strokeColor=#d79b00;" parent="1" source="8D8bKTPe_nqyVJf1hXeh-101" edge="1">
          <mxGeometry relative="1" as="geometry">
            <mxPoint x="565" y="440" as="targetPoint" />
          </mxGeometry>
        </mxCell>
        <mxCell id="8D8bKTPe_nqyVJf1hXeh-101" value="" style="whiteSpace=wrap;html=1;aspect=fixed;fillColor=#e1d5e7;strokeColor=#9673a6;" parent="1" vertex="1">
          <mxGeometry x="550" y="210" width="30" height="30" as="geometry" />
        </mxCell>
        <mxCell id="8D8bKTPe_nqyVJf1hXeh-132" style="edgeStyle=orthogonalEdgeStyle;rounded=0;orthogonalLoop=1;jettySize=auto;html=1;strokeWidth=2;fillColor=#ffe6cc;strokeColor=#d79b00;" parent="1" source="8D8bKTPe_nqyVJf1hXeh-102" edge="1">
          <mxGeometry relative="1" as="geometry">
            <mxPoint x="605" y="440" as="targetPoint" />
          </mxGeometry>
        </mxCell>
        <mxCell id="8D8bKTPe_nqyVJf1hXeh-102" value="" style="whiteSpace=wrap;html=1;aspect=fixed;fillColor=#e1d5e7;strokeColor=#9673a6;" parent="1" vertex="1">
          <mxGeometry x="590" y="210" width="30" height="30" as="geometry" />
        </mxCell>
        <mxCell id="8D8bKTPe_nqyVJf1hXeh-133" style="edgeStyle=orthogonalEdgeStyle;rounded=0;orthogonalLoop=1;jettySize=auto;html=1;strokeWidth=2;fillColor=#ffe6cc;strokeColor=#d79b00;" parent="1" source="8D8bKTPe_nqyVJf1hXeh-103" edge="1">
          <mxGeometry relative="1" as="geometry">
            <mxPoint x="645" y="440" as="targetPoint" />
          </mxGeometry>
        </mxCell>
        <mxCell id="8D8bKTPe_nqyVJf1hXeh-103" value="" style="whiteSpace=wrap;html=1;aspect=fixed;fillColor=#e1d5e7;strokeColor=#9673a6;" parent="1" vertex="1">
          <mxGeometry x="630" y="210" width="30" height="30" as="geometry" />
        </mxCell>
        <mxCell id="8D8bKTPe_nqyVJf1hXeh-134" style="edgeStyle=orthogonalEdgeStyle;rounded=0;orthogonalLoop=1;jettySize=auto;html=1;strokeWidth=2;fillColor=#ffe6cc;strokeColor=#d79b00;" parent="1" source="8D8bKTPe_nqyVJf1hXeh-104" edge="1">
          <mxGeometry relative="1" as="geometry">
            <mxPoint x="685" y="440" as="targetPoint" />
          </mxGeometry>
        </mxCell>
        <mxCell id="8D8bKTPe_nqyVJf1hXeh-104" value="" style="whiteSpace=wrap;html=1;aspect=fixed;fillColor=#e1d5e7;strokeColor=#9673a6;" parent="1" vertex="1">
          <mxGeometry x="670" y="210" width="30" height="30" as="geometry" />
        </mxCell>
        <mxCell id="8D8bKTPe_nqyVJf1hXeh-135" style="edgeStyle=orthogonalEdgeStyle;rounded=0;orthogonalLoop=1;jettySize=auto;html=1;strokeWidth=2;fillColor=#ffe6cc;strokeColor=#d79b00;" parent="1" source="8D8bKTPe_nqyVJf1hXeh-105" edge="1">
          <mxGeometry relative="1" as="geometry">
            <mxPoint x="725" y="440" as="targetPoint" />
          </mxGeometry>
        </mxCell>
        <mxCell id="8D8bKTPe_nqyVJf1hXeh-105" value="" style="whiteSpace=wrap;html=1;aspect=fixed;fillColor=#e1d5e7;strokeColor=#9673a6;" parent="1" vertex="1">
          <mxGeometry x="710" y="210" width="30" height="30" as="geometry" />
        </mxCell>
        <mxCell id="8D8bKTPe_nqyVJf1hXeh-106" value="" style="whiteSpace=wrap;html=1;aspect=fixed;fillColor=#ffe6cc;strokeColor=#d79b00;" parent="1" vertex="1">
          <mxGeometry x="70" y="210" width="30" height="30" as="geometry" />
        </mxCell>
        <mxCell id="8D8bKTPe_nqyVJf1hXeh-107" value="" style="whiteSpace=wrap;html=1;aspect=fixed;fillColor=#ffe6cc;strokeColor=#d79b00;" parent="1" vertex="1">
          <mxGeometry x="70" y="210" width="30" height="30" as="geometry" />
        </mxCell>
        <mxCell id="8D8bKTPe_nqyVJf1hXeh-119" style="edgeStyle=orthogonalEdgeStyle;rounded=0;orthogonalLoop=1;jettySize=auto;html=1;exitX=0.5;exitY=1;exitDx=0;exitDy=0;strokeWidth=2;fillColor=#ffe6cc;strokeColor=#d79b00;" parent="1" source="8D8bKTPe_nqyVJf1hXeh-108" edge="1">
          <mxGeometry relative="1" as="geometry">
            <mxPoint x="85" y="440" as="targetPoint" />
          </mxGeometry>
        </mxCell>
        <mxCell id="8D8bKTPe_nqyVJf1hXeh-108" value="" style="whiteSpace=wrap;html=1;aspect=fixed;fillColor=#e1d5e7;strokeColor=#9673a6;" parent="1" vertex="1">
          <mxGeometry x="70" y="210" width="30" height="30" as="geometry" />
        </mxCell>
        <mxCell id="8D8bKTPe_nqyVJf1hXeh-114" value="" style="strokeWidth=2;html=1;shape=mxgraph.flowchart.annotation_1;align=left;pointerEvents=1;fillColor=#ffe6cc;strokeColor=#d79b00;" parent="1" vertex="1">
          <mxGeometry y="90" width="50" height="100" as="geometry" />
        </mxCell>
        <mxCell id="8D8bKTPe_nqyVJf1hXeh-117" value="&lt;h1&gt;&lt;font style=&quot;font-size: 18px&quot;&gt;联合模型中所有模型共享的编码层&lt;/font&gt;&lt;/h1&gt;" style="shape=ext;rounded=1;html=1;whiteSpace=wrap;fillColor=#ffe6cc;strokeColor=#d79b00;" parent="1" vertex="1">
          <mxGeometry x="-180" y="112.5" width="150" height="65" as="geometry" />
        </mxCell>
        <mxCell id="8D8bKTPe_nqyVJf1hXeh-137" value="&lt;h1&gt;&lt;font style=&quot;font-size: 18px&quot;&gt;Layer Normalization&lt;/font&gt;&lt;/h1&gt;" style="rounded=0;whiteSpace=wrap;html=1;fillColor=#dae8fc;strokeColor=#6c8ebf;" parent="1" vertex="1">
          <mxGeometry x="50" y="260" width="710" height="50" as="geometry" />
        </mxCell>
        <mxCell id="8D8bKTPe_nqyVJf1hXeh-140" value="&lt;h1&gt;&lt;font style=&quot;font-size: 24px&quot;&gt;CRF&lt;/font&gt;&lt;/h1&gt;" style="rounded=0;whiteSpace=wrap;html=1;fillColor=#008a00;strokeColor=#005700;fontColor=#ffffff;" parent="1" vertex="1">
          <mxGeometry x="50" y="340" width="710" height="50" as="geometry" />
        </mxCell>
        <mxCell id="8D8bKTPe_nqyVJf1hXeh-141" value="0" style="rounded=0;whiteSpace=wrap;html=1;fillColor=#6d8764;strokeColor=#3A5431;fontColor=#ffffff;" parent="1" vertex="1">
          <mxGeometry x="70" y="440" width="30" height="30" as="geometry" />
        </mxCell>
        <mxCell id="8D8bKTPe_nqyVJf1hXeh-142" value="" style="rounded=0;whiteSpace=wrap;html=1;fillColor=#6d8764;strokeColor=#3A5431;fontColor=#ffffff;" parent="1" vertex="1">
          <mxGeometry x="550" y="440" width="30" height="30" as="geometry" />
        </mxCell>
        <mxCell id="8D8bKTPe_nqyVJf1hXeh-143" value="" style="rounded=0;whiteSpace=wrap;html=1;fillColor=#6d8764;strokeColor=#3A5431;fontColor=#ffffff;" parent="1" vertex="1">
          <mxGeometry x="590" y="440" width="30" height="30" as="geometry" />
        </mxCell>
        <mxCell id="8D8bKTPe_nqyVJf1hXeh-144" value="" style="rounded=0;whiteSpace=wrap;html=1;fillColor=#6d8764;strokeColor=#3A5431;fontColor=#ffffff;" parent="1" vertex="1">
          <mxGeometry x="630" y="440" width="30" height="30" as="geometry" />
        </mxCell>
        <mxCell id="8D8bKTPe_nqyVJf1hXeh-174" style="edgeStyle=orthogonalEdgeStyle;rounded=0;orthogonalLoop=1;jettySize=auto;html=1;strokeWidth=2;" parent="1" source="8D8bKTPe_nqyVJf1hXeh-145" edge="1">
          <mxGeometry relative="1" as="geometry">
            <mxPoint x="685" y="500" as="targetPoint" />
          </mxGeometry>
        </mxCell>
        <mxCell id="8D8bKTPe_nqyVJf1hXeh-145" value="7" style="rounded=0;whiteSpace=wrap;html=1;fillColor=#6d8764;strokeColor=#3A5431;fontColor=#ffffff;" parent="1" vertex="1">
          <mxGeometry x="670" y="440" width="30" height="30" as="geometry" />
        </mxCell>
        <mxCell id="8D8bKTPe_nqyVJf1hXeh-146" value="" style="rounded=0;whiteSpace=wrap;html=1;fillColor=#6d8764;strokeColor=#3A5431;fontColor=#ffffff;" parent="1" vertex="1">
          <mxGeometry x="710" y="440" width="30" height="30" as="geometry" />
        </mxCell>
        <mxCell id="8D8bKTPe_nqyVJf1hXeh-148" value="" style="rounded=0;whiteSpace=wrap;html=1;fillColor=#6d8764;strokeColor=#3A5431;fontColor=#ffffff;" parent="1" vertex="1">
          <mxGeometry x="270" y="440" width="30" height="30" as="geometry" />
        </mxCell>
        <mxCell id="8D8bKTPe_nqyVJf1hXeh-149" value="" style="rounded=0;whiteSpace=wrap;html=1;fillColor=#6d8764;strokeColor=#3A5431;fontColor=#ffffff;" parent="1" vertex="1">
          <mxGeometry x="310" y="440" width="30" height="30" as="geometry" />
        </mxCell>
        <mxCell id="8D8bKTPe_nqyVJf1hXeh-150" value="" style="rounded=0;whiteSpace=wrap;html=1;fillColor=#6d8764;strokeColor=#3A5431;fontColor=#ffffff;" parent="1" vertex="1">
          <mxGeometry x="350" y="440" width="30" height="30" as="geometry" />
        </mxCell>
        <mxCell id="8D8bKTPe_nqyVJf1hXeh-151" value="" style="rounded=0;whiteSpace=wrap;html=1;fillColor=#6d8764;strokeColor=#3A5431;fontColor=#ffffff;" parent="1" vertex="1">
          <mxGeometry x="390" y="440" width="30" height="30" as="geometry" />
        </mxCell>
        <mxCell id="8D8bKTPe_nqyVJf1hXeh-152" value="" style="rounded=0;whiteSpace=wrap;html=1;fillColor=#6d8764;strokeColor=#3A5431;fontColor=#ffffff;" parent="1" vertex="1">
          <mxGeometry x="430" y="440" width="30" height="30" as="geometry" />
        </mxCell>
        <mxCell id="8D8bKTPe_nqyVJf1hXeh-153" value="" style="rounded=0;whiteSpace=wrap;html=1;fillColor=#6d8764;strokeColor=#3A5431;fontColor=#ffffff;" parent="1" vertex="1">
          <mxGeometry x="469" y="440" width="30" height="30" as="geometry" />
        </mxCell>
        <mxCell id="8D8bKTPe_nqyVJf1hXeh-154" value="" style="rounded=0;whiteSpace=wrap;html=1;fillColor=#6d8764;strokeColor=#3A5431;fontColor=#ffffff;" parent="1" vertex="1">
          <mxGeometry x="510" y="440" width="30" height="30" as="geometry" />
        </mxCell>
        <mxCell id="8D8bKTPe_nqyVJf1hXeh-166" style="edgeStyle=orthogonalEdgeStyle;rounded=0;orthogonalLoop=1;jettySize=auto;html=1;strokeWidth=2;" parent="1" edge="1">
          <mxGeometry relative="1" as="geometry">
            <mxPoint x="123.5" y="570" as="targetPoint" />
            <mxPoint x="106" y="470" as="sourcePoint" />
          </mxGeometry>
        </mxCell>
        <mxCell id="8D8bKTPe_nqyVJf1hXeh-156" value="3" style="rounded=0;whiteSpace=wrap;html=1;fillColor=#6d8764;strokeColor=#3A5431;fontColor=#ffffff;" parent="1" vertex="1">
          <mxGeometry x="110" y="440" width="30" height="30" as="geometry" />
        </mxCell>
        <mxCell id="8D8bKTPe_nqyVJf1hXeh-168" style="edgeStyle=orthogonalEdgeStyle;rounded=0;orthogonalLoop=1;jettySize=auto;html=1;entryX=0.5;entryY=0;entryDx=0;entryDy=0;strokeWidth=2;" parent="1" source="8D8bKTPe_nqyVJf1hXeh-157" target="8D8bKTPe_nqyVJf1hXeh-163" edge="1">
          <mxGeometry relative="1" as="geometry" />
        </mxCell>
        <mxCell id="8D8bKTPe_nqyVJf1hXeh-157" value="4" style="rounded=0;whiteSpace=wrap;html=1;fillColor=#6d8764;strokeColor=#3A5431;fontColor=#ffffff;" parent="1" vertex="1">
          <mxGeometry x="150" y="440" width="30" height="30" as="geometry" />
        </mxCell>
        <mxCell id="8D8bKTPe_nqyVJf1hXeh-158" value="0" style="rounded=0;whiteSpace=wrap;html=1;fillColor=#6d8764;strokeColor=#3A5431;fontColor=#ffffff;" parent="1" vertex="1">
          <mxGeometry x="190" y="440" width="30" height="30" as="geometry" />
        </mxCell>
        <mxCell id="8D8bKTPe_nqyVJf1hXeh-159" value="" style="rounded=0;whiteSpace=wrap;html=1;fillColor=#6d8764;strokeColor=#3A5431;fontColor=#ffffff;" parent="1" vertex="1">
          <mxGeometry x="230" y="440" width="30" height="30" as="geometry" />
        </mxCell>
        <mxCell id="8D8bKTPe_nqyVJf1hXeh-163" value="&lt;h1&gt;&lt;font style=&quot;font-size: 18px&quot;&gt;I-SettingFault&lt;/font&gt;&lt;/h1&gt;" style="rounded=0;whiteSpace=wrap;html=1;fillColor=#e3c800;strokeColor=#B09500;fontColor=#ffffff;" parent="1" vertex="1">
          <mxGeometry x="88" y="510" width="155" height="30" as="geometry" />
        </mxCell>
        <mxCell id="8D8bKTPe_nqyVJf1hXeh-167" value="&lt;h1&gt;&lt;font style=&quot;font-size: 18px&quot;&gt;B-SettingFault&lt;/font&gt;&lt;/h1&gt;" style="rounded=0;whiteSpace=wrap;html=1;fillColor=#e3c800;strokeColor=#B09500;fontColor=#ffffff;" parent="1" vertex="1">
          <mxGeometry x="50" y="570" width="155" height="30" as="geometry" />
        </mxCell>
        <mxCell id="8D8bKTPe_nqyVJf1hXeh-176" value="&lt;h1&gt;&lt;font style=&quot;font-size: 18px&quot;&gt;B-TechIndexFault&lt;/font&gt;&lt;/h1&gt;" style="rounded=0;whiteSpace=wrap;html=1;fillColor=#e3c800;strokeColor=#B09500;fontColor=#ffffff;" parent="1" vertex="1">
          <mxGeometry x="610" y="500" width="160" height="30" as="geometry" />
        </mxCell>
        <mxCell id="0S6CmYJgwEttrHEu-w9v-9" value="" style="line;strokeWidth=2;direction=south;html=1;fillColor=#dae8fc;strokeColor=#6c8ebf;" vertex="1" parent="1">
          <mxGeometry x="797" y="500" width="10" height="160" as="geometry" />
        </mxCell>
        <mxCell id="0S6CmYJgwEttrHEu-w9v-11" value="" style="line;strokeWidth=2;html=1;fillColor=#dae8fc;strokeColor=#6c8ebf;" vertex="1" parent="1">
          <mxGeometry x="762" y="220" width="40" height="10" as="geometry" />
        </mxCell>
        <mxCell id="0S6CmYJgwEttrHEu-w9v-15" value="" style="line;strokeWidth=2;direction=south;html=1;fillColor=#dae8fc;strokeColor=#6c8ebf;" vertex="1" parent="1">
          <mxGeometry x="797" y="225" width="10" height="305" as="geometry" />
        </mxCell>
        <mxCell id="0S6CmYJgwEttrHEu-w9v-54" style="edgeStyle=orthogonalEdgeStyle;rounded=0;orthogonalLoop=1;jettySize=auto;html=1;strokeWidth=2;fillColor=#fff2cc;strokeColor=#d6b656;" edge="1" parent="1" source="0S6CmYJgwEttrHEu-w9v-23">
          <mxGeometry relative="1" as="geometry">
            <mxPoint x="85" y="850" as="targetPoint" />
          </mxGeometry>
        </mxCell>
        <mxCell id="0S6CmYJgwEttrHEu-w9v-23" value="" style="shape=ext;double=1;whiteSpace=wrap;html=1;aspect=fixed;fillColor=#e1d5e7;strokeColor=#9673a6;" vertex="1" parent="1">
          <mxGeometry x="70" y="640" width="30" height="30" as="geometry" />
        </mxCell>
        <mxCell id="0S6CmYJgwEttrHEu-w9v-62" style="edgeStyle=orthogonalEdgeStyle;rounded=0;orthogonalLoop=1;jettySize=auto;html=1;strokeWidth=2;fillColor=#fff2cc;strokeColor=#d6b656;" edge="1" parent="1" source="0S6CmYJgwEttrHEu-w9v-24">
          <mxGeometry relative="1" as="geometry">
            <mxPoint x="405" y="850" as="targetPoint" />
          </mxGeometry>
        </mxCell>
        <mxCell id="0S6CmYJgwEttrHEu-w9v-24" value="" style="shape=ext;double=1;whiteSpace=wrap;html=1;aspect=fixed;fillColor=#e1d5e7;strokeColor=#9673a6;" vertex="1" parent="1">
          <mxGeometry x="390" y="640" width="30" height="30" as="geometry" />
        </mxCell>
        <mxCell id="0S6CmYJgwEttrHEu-w9v-63" style="edgeStyle=orthogonalEdgeStyle;rounded=0;orthogonalLoop=1;jettySize=auto;html=1;strokeWidth=2;fillColor=#fff2cc;strokeColor=#d6b656;" edge="1" parent="1" source="0S6CmYJgwEttrHEu-w9v-25">
          <mxGeometry relative="1" as="geometry">
            <mxPoint x="445" y="850" as="targetPoint" />
          </mxGeometry>
        </mxCell>
        <mxCell id="0S6CmYJgwEttrHEu-w9v-25" value="" style="shape=ext;double=1;whiteSpace=wrap;html=1;aspect=fixed;fillColor=#e1d5e7;strokeColor=#9673a6;" vertex="1" parent="1">
          <mxGeometry x="430" y="640" width="30" height="30" as="geometry" />
        </mxCell>
        <mxCell id="0S6CmYJgwEttrHEu-w9v-64" style="edgeStyle=orthogonalEdgeStyle;rounded=0;orthogonalLoop=1;jettySize=auto;html=1;strokeWidth=2;fillColor=#fff2cc;strokeColor=#d6b656;" edge="1" parent="1" source="0S6CmYJgwEttrHEu-w9v-26">
          <mxGeometry relative="1" as="geometry">
            <mxPoint x="484" y="850" as="targetPoint" />
          </mxGeometry>
        </mxCell>
        <mxCell id="0S6CmYJgwEttrHEu-w9v-26" value="" style="shape=ext;double=1;whiteSpace=wrap;html=1;aspect=fixed;fillColor=#e1d5e7;strokeColor=#9673a6;" vertex="1" parent="1">
          <mxGeometry x="469" y="640" width="30" height="30" as="geometry" />
        </mxCell>
        <mxCell id="0S6CmYJgwEttrHEu-w9v-65" style="edgeStyle=orthogonalEdgeStyle;rounded=0;orthogonalLoop=1;jettySize=auto;html=1;strokeWidth=2;fillColor=#fff2cc;strokeColor=#d6b656;" edge="1" parent="1" source="0S6CmYJgwEttrHEu-w9v-27">
          <mxGeometry relative="1" as="geometry">
            <mxPoint x="525" y="850" as="targetPoint" />
          </mxGeometry>
        </mxCell>
        <mxCell id="0S6CmYJgwEttrHEu-w9v-27" value="" style="shape=ext;double=1;whiteSpace=wrap;html=1;aspect=fixed;fillColor=#e1d5e7;strokeColor=#9673a6;" vertex="1" parent="1">
          <mxGeometry x="510" y="640" width="30" height="30" as="geometry" />
        </mxCell>
        <mxCell id="0S6CmYJgwEttrHEu-w9v-66" style="edgeStyle=orthogonalEdgeStyle;rounded=0;orthogonalLoop=1;jettySize=auto;html=1;strokeWidth=2;fillColor=#fff2cc;strokeColor=#d6b656;" edge="1" parent="1" source="0S6CmYJgwEttrHEu-w9v-28">
          <mxGeometry relative="1" as="geometry">
            <mxPoint x="565" y="850" as="targetPoint" />
          </mxGeometry>
        </mxCell>
        <mxCell id="0S6CmYJgwEttrHEu-w9v-28" value="" style="shape=ext;double=1;whiteSpace=wrap;html=1;aspect=fixed;fillColor=#e1d5e7;strokeColor=#9673a6;" vertex="1" parent="1">
          <mxGeometry x="550" y="640" width="30" height="30" as="geometry" />
        </mxCell>
        <mxCell id="0S6CmYJgwEttrHEu-w9v-67" style="edgeStyle=orthogonalEdgeStyle;rounded=0;orthogonalLoop=1;jettySize=auto;html=1;strokeWidth=2;fillColor=#fff2cc;strokeColor=#d6b656;" edge="1" parent="1" source="0S6CmYJgwEttrHEu-w9v-29">
          <mxGeometry relative="1" as="geometry">
            <mxPoint x="605" y="850" as="targetPoint" />
          </mxGeometry>
        </mxCell>
        <mxCell id="0S6CmYJgwEttrHEu-w9v-29" value="" style="shape=ext;double=1;whiteSpace=wrap;html=1;aspect=fixed;fillColor=#e1d5e7;strokeColor=#9673a6;" vertex="1" parent="1">
          <mxGeometry x="590" y="640" width="30" height="30" as="geometry" />
        </mxCell>
        <mxCell id="0S6CmYJgwEttrHEu-w9v-68" style="edgeStyle=orthogonalEdgeStyle;rounded=0;orthogonalLoop=1;jettySize=auto;html=1;strokeWidth=2;fillColor=#fff2cc;strokeColor=#d6b656;" edge="1" parent="1" source="0S6CmYJgwEttrHEu-w9v-30">
          <mxGeometry relative="1" as="geometry">
            <mxPoint x="645" y="850" as="targetPoint" />
          </mxGeometry>
        </mxCell>
        <mxCell id="0S6CmYJgwEttrHEu-w9v-30" value="" style="shape=ext;double=1;whiteSpace=wrap;html=1;aspect=fixed;fillColor=#e1d5e7;strokeColor=#9673a6;" vertex="1" parent="1">
          <mxGeometry x="630" y="640" width="30" height="30" as="geometry" />
        </mxCell>
        <mxCell id="0S6CmYJgwEttrHEu-w9v-52" style="edgeStyle=orthogonalEdgeStyle;rounded=0;orthogonalLoop=1;jettySize=auto;html=1;exitX=0;exitY=0.5;exitDx=0;exitDy=0;strokeWidth=2;fillColor=#fff2cc;strokeColor=#d6b656;" edge="1" parent="1" source="0S6CmYJgwEttrHEu-w9v-31">
          <mxGeometry relative="1" as="geometry">
            <mxPoint x="-20" y="720" as="targetPoint" />
            <Array as="points">
              <mxPoint x="670" y="610" />
              <mxPoint x="-20" y="610" />
            </Array>
          </mxGeometry>
        </mxCell>
        <mxCell id="0S6CmYJgwEttrHEu-w9v-69" style="edgeStyle=orthogonalEdgeStyle;rounded=0;orthogonalLoop=1;jettySize=auto;html=1;strokeWidth=2;fillColor=#fff2cc;strokeColor=#d6b656;" edge="1" parent="1" source="0S6CmYJgwEttrHEu-w9v-31">
          <mxGeometry relative="1" as="geometry">
            <mxPoint x="685" y="850" as="targetPoint" />
          </mxGeometry>
        </mxCell>
        <mxCell id="0S6CmYJgwEttrHEu-w9v-31" value="" style="shape=ext;double=1;whiteSpace=wrap;html=1;aspect=fixed;fillColor=#e1d5e7;strokeColor=#9673a6;" vertex="1" parent="1">
          <mxGeometry x="670" y="640" width="30" height="30" as="geometry" />
        </mxCell>
        <mxCell id="0S6CmYJgwEttrHEu-w9v-70" style="edgeStyle=orthogonalEdgeStyle;rounded=0;orthogonalLoop=1;jettySize=auto;html=1;strokeWidth=2;fillColor=#fff2cc;strokeColor=#d6b656;" edge="1" parent="1" source="0S6CmYJgwEttrHEu-w9v-32">
          <mxGeometry relative="1" as="geometry">
            <mxPoint x="725" y="850" as="targetPoint" />
          </mxGeometry>
        </mxCell>
        <mxCell id="0S6CmYJgwEttrHEu-w9v-32" value="" style="shape=ext;double=1;whiteSpace=wrap;html=1;aspect=fixed;fillColor=#e1d5e7;strokeColor=#9673a6;" vertex="1" parent="1">
          <mxGeometry x="710" y="640" width="30" height="30" as="geometry" />
        </mxCell>
        <mxCell id="0S6CmYJgwEttrHEu-w9v-58" style="edgeStyle=orthogonalEdgeStyle;rounded=0;orthogonalLoop=1;jettySize=auto;html=1;strokeWidth=2;fillColor=#fff2cc;strokeColor=#d6b656;" edge="1" parent="1" source="0S6CmYJgwEttrHEu-w9v-35">
          <mxGeometry relative="1" as="geometry">
            <mxPoint x="245" y="850" as="targetPoint" />
          </mxGeometry>
        </mxCell>
        <mxCell id="0S6CmYJgwEttrHEu-w9v-35" value="" style="shape=ext;double=1;whiteSpace=wrap;html=1;aspect=fixed;fillColor=#e1d5e7;strokeColor=#9673a6;" vertex="1" parent="1">
          <mxGeometry x="230" y="640" width="30" height="30" as="geometry" />
        </mxCell>
        <mxCell id="0S6CmYJgwEttrHEu-w9v-57" style="edgeStyle=orthogonalEdgeStyle;rounded=0;orthogonalLoop=1;jettySize=auto;html=1;strokeWidth=2;fillColor=#fff2cc;strokeColor=#d6b656;" edge="1" parent="1" source="0S6CmYJgwEttrHEu-w9v-36">
          <mxGeometry relative="1" as="geometry">
            <mxPoint x="205" y="850" as="targetPoint" />
          </mxGeometry>
        </mxCell>
        <mxCell id="0S6CmYJgwEttrHEu-w9v-36" value="" style="shape=ext;double=1;whiteSpace=wrap;html=1;aspect=fixed;fillColor=#e1d5e7;strokeColor=#9673a6;" vertex="1" parent="1">
          <mxGeometry x="190" y="640" width="30" height="30" as="geometry" />
        </mxCell>
        <mxCell id="0S6CmYJgwEttrHEu-w9v-51" style="edgeStyle=orthogonalEdgeStyle;rounded=0;orthogonalLoop=1;jettySize=auto;html=1;exitX=0;exitY=0.5;exitDx=0;exitDy=0;strokeWidth=2;fillColor=#fff2cc;strokeColor=#d6b656;" edge="1" parent="1" source="0S6CmYJgwEttrHEu-w9v-37">
          <mxGeometry relative="1" as="geometry">
            <mxPoint x="-60" y="720" as="targetPoint" />
            <Array as="points">
              <mxPoint x="150" y="630" />
              <mxPoint x="-60" y="630" />
            </Array>
          </mxGeometry>
        </mxCell>
        <mxCell id="0S6CmYJgwEttrHEu-w9v-56" style="edgeStyle=orthogonalEdgeStyle;rounded=0;orthogonalLoop=1;jettySize=auto;html=1;strokeWidth=2;fillColor=#fff2cc;strokeColor=#d6b656;" edge="1" parent="1" source="0S6CmYJgwEttrHEu-w9v-37">
          <mxGeometry relative="1" as="geometry">
            <mxPoint x="165" y="850" as="targetPoint" />
          </mxGeometry>
        </mxCell>
        <mxCell id="0S6CmYJgwEttrHEu-w9v-37" value="" style="shape=ext;double=1;whiteSpace=wrap;html=1;aspect=fixed;fillColor=#e1d5e7;strokeColor=#9673a6;" vertex="1" parent="1">
          <mxGeometry x="150" y="640" width="30" height="30" as="geometry" />
        </mxCell>
        <mxCell id="0S6CmYJgwEttrHEu-w9v-50" style="edgeStyle=orthogonalEdgeStyle;rounded=0;orthogonalLoop=1;jettySize=auto;html=1;strokeWidth=2;fillColor=#fff2cc;strokeColor=#d6b656;" edge="1" parent="1" source="0S6CmYJgwEttrHEu-w9v-38">
          <mxGeometry relative="1" as="geometry">
            <mxPoint x="-100" y="720" as="targetPoint" />
            <Array as="points">
              <mxPoint x="125" y="620" />
              <mxPoint x="-100" y="620" />
            </Array>
          </mxGeometry>
        </mxCell>
        <mxCell id="0S6CmYJgwEttrHEu-w9v-55" style="edgeStyle=orthogonalEdgeStyle;rounded=0;orthogonalLoop=1;jettySize=auto;html=1;strokeWidth=2;fillColor=#fff2cc;strokeColor=#d6b656;" edge="1" parent="1" source="0S6CmYJgwEttrHEu-w9v-38">
          <mxGeometry relative="1" as="geometry">
            <mxPoint x="125" y="850" as="targetPoint" />
          </mxGeometry>
        </mxCell>
        <mxCell id="0S6CmYJgwEttrHEu-w9v-38" value="" style="shape=ext;double=1;whiteSpace=wrap;html=1;aspect=fixed;fillColor=#e1d5e7;strokeColor=#9673a6;" vertex="1" parent="1">
          <mxGeometry x="110" y="640" width="30" height="30" as="geometry" />
        </mxCell>
        <mxCell id="0S6CmYJgwEttrHEu-w9v-61" style="edgeStyle=orthogonalEdgeStyle;rounded=0;orthogonalLoop=1;jettySize=auto;html=1;strokeWidth=2;fillColor=#fff2cc;strokeColor=#d6b656;" edge="1" parent="1" source="0S6CmYJgwEttrHEu-w9v-39">
          <mxGeometry relative="1" as="geometry">
            <mxPoint x="365" y="850" as="targetPoint" />
          </mxGeometry>
        </mxCell>
        <mxCell id="0S6CmYJgwEttrHEu-w9v-39" value="" style="shape=ext;double=1;whiteSpace=wrap;html=1;aspect=fixed;fillColor=#e1d5e7;strokeColor=#9673a6;" vertex="1" parent="1">
          <mxGeometry x="350" y="640" width="30" height="30" as="geometry" />
        </mxCell>
        <mxCell id="0S6CmYJgwEttrHEu-w9v-60" style="edgeStyle=orthogonalEdgeStyle;rounded=0;orthogonalLoop=1;jettySize=auto;html=1;strokeWidth=2;fillColor=#fff2cc;strokeColor=#d6b656;" edge="1" parent="1" source="0S6CmYJgwEttrHEu-w9v-40">
          <mxGeometry relative="1" as="geometry">
            <mxPoint x="325" y="850" as="targetPoint" />
          </mxGeometry>
        </mxCell>
        <mxCell id="0S6CmYJgwEttrHEu-w9v-40" value="" style="shape=ext;double=1;whiteSpace=wrap;html=1;aspect=fixed;fillColor=#e1d5e7;strokeColor=#9673a6;" vertex="1" parent="1">
          <mxGeometry x="310" y="640" width="30" height="30" as="geometry" />
        </mxCell>
        <mxCell id="0S6CmYJgwEttrHEu-w9v-59" style="edgeStyle=orthogonalEdgeStyle;rounded=0;orthogonalLoop=1;jettySize=auto;html=1;strokeWidth=2;fillColor=#fff2cc;strokeColor=#d6b656;" edge="1" parent="1" source="0S6CmYJgwEttrHEu-w9v-41">
          <mxGeometry relative="1" as="geometry">
            <mxPoint x="285" y="850" as="targetPoint" />
          </mxGeometry>
        </mxCell>
        <mxCell id="0S6CmYJgwEttrHEu-w9v-41" value="" style="shape=ext;double=1;whiteSpace=wrap;html=1;aspect=fixed;fillColor=#e1d5e7;strokeColor=#9673a6;" vertex="1" parent="1">
          <mxGeometry x="270" y="640" width="30" height="30" as="geometry" />
        </mxCell>
        <mxCell id="0S6CmYJgwEttrHEu-w9v-44" style="edgeStyle=orthogonalEdgeStyle;rounded=0;orthogonalLoop=1;jettySize=auto;html=1;strokeWidth=2;fillColor=#dae8fc;strokeColor=#6c8ebf;" edge="1" parent="1" source="0S6CmYJgwEttrHEu-w9v-43">
          <mxGeometry relative="1" as="geometry">
            <mxPoint x="750" y="659" as="targetPoint" />
          </mxGeometry>
        </mxCell>
        <mxCell id="0S6CmYJgwEttrHEu-w9v-43" value="" style="line;strokeWidth=2;html=1;fillColor=#dae8fc;strokeColor=#6c8ebf;" vertex="1" parent="1">
          <mxGeometry x="780" y="654" width="22" height="10" as="geometry" />
        </mxCell>
        <mxCell id="0S6CmYJgwEttrHEu-w9v-48" value="&lt;font style=&quot;font-size: 14px&quot;&gt;&lt;b&gt;训练阶段，第一层CRF抽取出输入文本的所有事件对应的trigger，并传入下一步训练，例子抽取了“开启“和低&lt;/b&gt;&lt;/font&gt;" style="shape=tape;whiteSpace=wrap;html=1;strokeWidth=2;size=0.19;fillColor=#f8cecc;strokeColor=#b85450;" vertex="1" parent="1">
          <mxGeometry x="290" y="492.5" width="270" height="117.5" as="geometry" />
        </mxCell>
        <mxCell id="2" value="&lt;font style=&quot;font-size: 18px&quot;&gt;&lt;b&gt;复用bert的编码序列&lt;/b&gt;&lt;/font&gt;" style="text;html=1;align=center;verticalAlign=middle;resizable=0;points=[];autosize=1;" vertex="1" parent="1">
          <mxGeometry x="730" y="410" width="180" height="20" as="geometry" />
        </mxCell>
        <mxCell id="0S6CmYJgwEttrHEu-w9v-77" value="" style="edgeStyle=orthogonalEdgeStyle;rounded=0;orthogonalLoop=1;jettySize=auto;html=1;strokeWidth=2;" edge="1" parent="1" source="0S6CmYJgwEttrHEu-w9v-53" target="0S6CmYJgwEttrHEu-w9v-72">
          <mxGeometry relative="1" as="geometry" />
        </mxCell>
        <mxCell id="0S6CmYJgwEttrHEu-w9v-53" value="&lt;font style=&quot;font-size: 14px&quot;&gt;&lt;b&gt;对应的词的embedding累加求平均传入condition layer normalization中&lt;/b&gt;&lt;/font&gt;" style="rounded=0;whiteSpace=wrap;html=1;fillColor=#fff2cc;strokeColor=#d6b656;" vertex="1" parent="1">
          <mxGeometry x="-220" y="720" width="240" height="40" as="geometry" />
        </mxCell>
        <mxCell id="0S6CmYJgwEttrHEu-w9v-72" value="&lt;h1&gt;&lt;font style=&quot;font-size: 18px&quot;&gt;Conditional Layer Normalization&lt;/font&gt;&lt;/h1&gt;" style="rounded=0;whiteSpace=wrap;html=1;fillColor=#dae8fc;strokeColor=#6c8ebf;" vertex="1" parent="1">
          <mxGeometry x="50" y="715" width="710" height="50" as="geometry" />
        </mxCell>
        <mxCell id="0S6CmYJgwEttrHEu-w9v-78" value="" style="whiteSpace=wrap;html=1;aspect=fixed;fillColor=#e1d5e7;strokeColor=#9673a6;" vertex="1" parent="1">
          <mxGeometry x="70" y="850" width="30" height="30" as="geometry" />
        </mxCell>
        <mxCell id="0S6CmYJgwEttrHEu-w9v-79" value="" style="whiteSpace=wrap;html=1;aspect=fixed;fillColor=#e1d5e7;strokeColor=#9673a6;" vertex="1" parent="1">
          <mxGeometry x="350" y="850" width="30" height="30" as="geometry" />
        </mxCell>
        <mxCell id="0S6CmYJgwEttrHEu-w9v-80" value="" style="whiteSpace=wrap;html=1;aspect=fixed;fillColor=#e1d5e7;strokeColor=#9673a6;" vertex="1" parent="1">
          <mxGeometry x="390" y="850" width="30" height="30" as="geometry" />
        </mxCell>
        <mxCell id="0S6CmYJgwEttrHEu-w9v-81" value="" style="whiteSpace=wrap;html=1;aspect=fixed;fillColor=#e1d5e7;strokeColor=#9673a6;" vertex="1" parent="1">
          <mxGeometry x="430" y="850" width="30" height="30" as="geometry" />
        </mxCell>
        <mxCell id="0S6CmYJgwEttrHEu-w9v-100" style="edgeStyle=orthogonalEdgeStyle;rounded=0;orthogonalLoop=1;jettySize=auto;html=1;strokeWidth=2;" edge="1" parent="1" source="0S6CmYJgwEttrHEu-w9v-82" target="0S6CmYJgwEttrHEu-w9v-101">
          <mxGeometry relative="1" as="geometry">
            <mxPoint x="484" y="920" as="targetPoint" />
          </mxGeometry>
        </mxCell>
        <mxCell id="0S6CmYJgwEttrHEu-w9v-82" value="1" style="whiteSpace=wrap;html=1;aspect=fixed;fillColor=#e1d5e7;strokeColor=#9673a6;" vertex="1" parent="1">
          <mxGeometry x="469" y="850" width="30" height="30" as="geometry" />
        </mxCell>
        <mxCell id="0S6CmYJgwEttrHEu-w9v-102" style="edgeStyle=orthogonalEdgeStyle;rounded=0;orthogonalLoop=1;jettySize=auto;html=1;strokeWidth=2;" edge="1" parent="1" source="0S6CmYJgwEttrHEu-w9v-83" target="0S6CmYJgwEttrHEu-w9v-103">
          <mxGeometry relative="1" as="geometry">
            <mxPoint x="525" y="990" as="targetPoint" />
          </mxGeometry>
        </mxCell>
        <mxCell id="0S6CmYJgwEttrHEu-w9v-83" value="2" style="whiteSpace=wrap;html=1;aspect=fixed;fillColor=#e1d5e7;strokeColor=#9673a6;" vertex="1" parent="1">
          <mxGeometry x="510" y="850" width="30" height="30" as="geometry" />
        </mxCell>
        <mxCell id="0S6CmYJgwEttrHEu-w9v-107" style="edgeStyle=orthogonalEdgeStyle;rounded=0;orthogonalLoop=1;jettySize=auto;html=1;entryX=0.595;entryY=-0.033;entryDx=0;entryDy=0;entryPerimeter=0;strokeWidth=2;" edge="1" parent="1" source="0S6CmYJgwEttrHEu-w9v-84" target="0S6CmYJgwEttrHEu-w9v-104">
          <mxGeometry relative="1" as="geometry" />
        </mxCell>
        <mxCell id="0S6CmYJgwEttrHEu-w9v-84" value="2" style="whiteSpace=wrap;html=1;aspect=fixed;fillColor=#e1d5e7;strokeColor=#9673a6;" vertex="1" parent="1">
          <mxGeometry x="550" y="850" width="30" height="30" as="geometry" />
        </mxCell>
        <mxCell id="0S6CmYJgwEttrHEu-w9v-108" style="edgeStyle=orthogonalEdgeStyle;rounded=0;orthogonalLoop=1;jettySize=auto;html=1;strokeWidth=2;" edge="1" parent="1" source="0S6CmYJgwEttrHEu-w9v-85" target="0S6CmYJgwEttrHEu-w9v-105">
          <mxGeometry relative="1" as="geometry" />
        </mxCell>
        <mxCell id="0S6CmYJgwEttrHEu-w9v-85" value="2" style="whiteSpace=wrap;html=1;aspect=fixed;fillColor=#e1d5e7;strokeColor=#9673a6;" vertex="1" parent="1">
          <mxGeometry x="590" y="850" width="30" height="30" as="geometry" />
        </mxCell>
        <mxCell id="0S6CmYJgwEttrHEu-w9v-109" style="edgeStyle=orthogonalEdgeStyle;rounded=0;orthogonalLoop=1;jettySize=auto;html=1;entryX=0.5;entryY=0;entryDx=0;entryDy=0;strokeWidth=2;" edge="1" parent="1" source="0S6CmYJgwEttrHEu-w9v-86" target="0S6CmYJgwEttrHEu-w9v-106">
          <mxGeometry relative="1" as="geometry" />
        </mxCell>
        <mxCell id="0S6CmYJgwEttrHEu-w9v-86" value="2" style="whiteSpace=wrap;html=1;aspect=fixed;fillColor=#e1d5e7;strokeColor=#9673a6;" vertex="1" parent="1">
          <mxGeometry x="630" y="850" width="30" height="30" as="geometry" />
        </mxCell>
        <mxCell id="0S6CmYJgwEttrHEu-w9v-87" value="" style="whiteSpace=wrap;html=1;aspect=fixed;fillColor=#e1d5e7;strokeColor=#9673a6;" vertex="1" parent="1">
          <mxGeometry x="670" y="850" width="30" height="30" as="geometry" />
        </mxCell>
        <mxCell id="0S6CmYJgwEttrHEu-w9v-88" value="" style="whiteSpace=wrap;html=1;aspect=fixed;fillColor=#e1d5e7;strokeColor=#9673a6;" vertex="1" parent="1">
          <mxGeometry x="710" y="850" width="30" height="30" as="geometry" />
        </mxCell>
        <mxCell id="0S6CmYJgwEttrHEu-w9v-92" value="" style="whiteSpace=wrap;html=1;aspect=fixed;fillColor=#e1d5e7;strokeColor=#9673a6;" vertex="1" parent="1">
          <mxGeometry x="310" y="850" width="30" height="30" as="geometry" />
        </mxCell>
        <mxCell id="0S6CmYJgwEttrHEu-w9v-93" value="" style="whiteSpace=wrap;html=1;aspect=fixed;fillColor=#e1d5e7;strokeColor=#9673a6;" vertex="1" parent="1">
          <mxGeometry x="270" y="850" width="30" height="30" as="geometry" />
        </mxCell>
        <mxCell id="0S6CmYJgwEttrHEu-w9v-94" value="" style="whiteSpace=wrap;html=1;aspect=fixed;fillColor=#e1d5e7;strokeColor=#9673a6;" vertex="1" parent="1">
          <mxGeometry x="230" y="850" width="30" height="30" as="geometry" />
        </mxCell>
        <mxCell id="0S6CmYJgwEttrHEu-w9v-95" value="" style="whiteSpace=wrap;html=1;aspect=fixed;fillColor=#e1d5e7;strokeColor=#9673a6;" vertex="1" parent="1">
          <mxGeometry x="190" y="850" width="30" height="30" as="geometry" />
        </mxCell>
        <mxCell id="0S6CmYJgwEttrHEu-w9v-96" value="" style="whiteSpace=wrap;html=1;aspect=fixed;fillColor=#e1d5e7;strokeColor=#9673a6;" vertex="1" parent="1">
          <mxGeometry x="150.5" y="850" width="30" height="30" as="geometry" />
        </mxCell>
        <mxCell id="0S6CmYJgwEttrHEu-w9v-97" value="" style="whiteSpace=wrap;html=1;aspect=fixed;fillColor=#e1d5e7;strokeColor=#9673a6;" vertex="1" parent="1">
          <mxGeometry x="110" y="850" width="30" height="30" as="geometry" />
        </mxCell>
        <mxCell id="0S6CmYJgwEttrHEu-w9v-98" value="&lt;h1&gt;&lt;font style=&quot;font-size: 18px&quot;&gt;针对第一种事件TechIndexFault搭建的CRF层&lt;/font&gt;&lt;/h1&gt;" style="rounded=0;whiteSpace=wrap;html=1;fillColor=#fff2cc;strokeColor=#d6b656;" vertex="1" parent="1">
          <mxGeometry x="50" y="780" width="710" height="50" as="geometry" />
        </mxCell>
        <mxCell id="0S6CmYJgwEttrHEu-w9v-101" value="&lt;h1&gt;&lt;font style=&quot;font-size: 14px&quot;&gt;B-TechIndexFault-techindex&lt;/font&gt;&amp;nbsp;&lt;/h1&gt;" style="rounded=0;whiteSpace=wrap;html=1;fillColor=#fad9d5;strokeColor=#ae4132;" vertex="1" parent="1">
          <mxGeometry x="379" y="930" width="210" height="30" as="geometry" />
        </mxCell>
        <mxCell id="0S6CmYJgwEttrHEu-w9v-103" value="&lt;font style=&quot;font-size: 14px&quot;&gt;&lt;b&gt;I-TechIndexFault-techindex&lt;/b&gt;&lt;/font&gt;" style="rounded=0;whiteSpace=wrap;html=1;fillColor=#fad9d5;strokeColor=#ae4132;" vertex="1" parent="1">
          <mxGeometry x="420" y="970" width="210" height="30" as="geometry" />
        </mxCell>
        <mxCell id="0S6CmYJgwEttrHEu-w9v-104" value="&lt;font style=&quot;font-size: 14px&quot;&gt;&lt;b&gt;I-TechIndexFault-techindex&lt;/b&gt;&lt;/font&gt;" style="rounded=0;whiteSpace=wrap;html=1;fillColor=#fad9d5;strokeColor=#ae4132;" vertex="1" parent="1">
          <mxGeometry x="440" y="1000" width="210" height="30" as="geometry" />
        </mxCell>
        <mxCell id="0S6CmYJgwEttrHEu-w9v-105" value="&lt;font style=&quot;font-size: 14px&quot;&gt;&lt;b&gt;I-TechIndexFault-techindex&lt;/b&gt;&lt;/font&gt;" style="rounded=0;whiteSpace=wrap;html=1;fillColor=#fad9d5;strokeColor=#ae4132;" vertex="1" parent="1">
          <mxGeometry x="500" y="1040" width="210" height="30" as="geometry" />
        </mxCell>
        <mxCell id="0S6CmYJgwEttrHEu-w9v-106" value="&lt;font style=&quot;font-size: 14px&quot;&gt;&lt;b&gt;I-TechIndexFault-techindex&lt;/b&gt;&lt;/font&gt;" style="rounded=0;whiteSpace=wrap;html=1;fillColor=#fad9d5;strokeColor=#ae4132;" vertex="1" parent="1">
          <mxGeometry x="540" y="1080" width="210" height="30" as="geometry" />
        </mxCell>
        <mxCell id="0S6CmYJgwEttrHEu-w9v-110" value="" style="line;strokeWidth=2;direction=south;html=1;" vertex="1" parent="1">
          <mxGeometry x="797" y="660" width="10" height="600" as="geometry" />
        </mxCell>
        <mxCell id="0S6CmYJgwEttrHEu-w9v-115" style="edgeStyle=orthogonalEdgeStyle;rounded=0;orthogonalLoop=1;jettySize=auto;html=1;strokeWidth=2;" edge="1" parent="1" source="0S6CmYJgwEttrHEu-w9v-112" target="0S6CmYJgwEttrHEu-w9v-114">
          <mxGeometry relative="1" as="geometry" />
        </mxCell>
        <mxCell id="0S6CmYJgwEttrHEu-w9v-112" value="" style="line;strokeWidth=2;html=1;" vertex="1" parent="1">
          <mxGeometry x="642" y="1254" width="160" height="10" as="geometry" />
        </mxCell>
        <mxCell id="0S6CmYJgwEttrHEu-w9v-114" value="&lt;font style=&quot;font-size: 14px&quot;&gt;&lt;b&gt;事件SettingFault搭建一个对应的CRF层，&lt;br&gt;模型结构同上&lt;/b&gt;&lt;/font&gt;" style="ellipse;shape=cloud;whiteSpace=wrap;html=1;align=center;fillColor=#fad7ac;strokeColor=#b46504;" vertex="1" parent="1">
          <mxGeometry x="270" y="1181" width="310" height="156" as="geometry" />
        </mxCell>
        <mxCell id="0S6CmYJgwEttrHEu-w9v-118" value="" style="line;strokeWidth=2;direction=south;html=1;" vertex="1" parent="1">
          <mxGeometry x="797" y="1260" width="10" height="290" as="geometry" />
        </mxCell>
        <mxCell id="0S6CmYJgwEttrHEu-w9v-120" style="edgeStyle=orthogonalEdgeStyle;rounded=0;orthogonalLoop=1;jettySize=auto;html=1;strokeWidth=2;" edge="1" parent="1" source="0S6CmYJgwEttrHEu-w9v-119">
          <mxGeometry relative="1" as="geometry">
            <mxPoint x="590" y="1549" as="targetPoint" />
          </mxGeometry>
        </mxCell>
        <mxCell id="0S6CmYJgwEttrHEu-w9v-119" value="" style="line;strokeWidth=2;html=1;" vertex="1" parent="1">
          <mxGeometry x="678" y="1544" width="125" height="10" as="geometry" />
        </mxCell>
        <mxCell id="0S6CmYJgwEttrHEu-w9v-122" value="&lt;font style=&quot;font-size: 14px&quot;&gt;&lt;b&gt;事件SoftHardwareFault&lt;br&gt;搭建一个对应的CRF层，&lt;br&gt;模型结构同上&lt;/b&gt;&lt;/font&gt;" style="ellipse;shape=cloud;whiteSpace=wrap;html=1;align=center;fillColor=#fad7ac;strokeColor=#b46504;" vertex="1" parent="1">
          <mxGeometry x="250" y="1460" width="340" height="156" as="geometry" />
        </mxCell>
        <mxCell id="0S6CmYJgwEttrHEu-w9v-123" value="" style="line;strokeWidth=2;direction=south;html=1;" vertex="1" parent="1">
          <mxGeometry x="797" y="1550" width="10" height="246" as="geometry" />
        </mxCell>
        <mxCell id="0S6CmYJgwEttrHEu-w9v-125" style="edgeStyle=orthogonalEdgeStyle;rounded=0;orthogonalLoop=1;jettySize=auto;html=1;strokeWidth=2;" edge="1" parent="1" source="0S6CmYJgwEttrHEu-w9v-124">
          <mxGeometry relative="1" as="geometry">
            <mxPoint x="590" y="1795" as="targetPoint" />
          </mxGeometry>
        </mxCell>
        <mxCell id="0S6CmYJgwEttrHEu-w9v-124" value="" style="line;strokeWidth=2;html=1;" vertex="1" parent="1">
          <mxGeometry x="680" y="1790" width="123" height="10" as="geometry" />
        </mxCell>
        <mxCell id="0S6CmYJgwEttrHEu-w9v-126" value="&lt;font style=&quot;font-size: 14px&quot;&gt;&lt;b&gt;事件SoftHardwareFault&lt;br&gt;搭建一个对应的CRF层，&lt;br&gt;模型结构同上&lt;/b&gt;&lt;/font&gt;" style="ellipse;shape=cloud;whiteSpace=wrap;html=1;align=center;fillColor=#fad7ac;strokeColor=#b46504;" vertex="1" parent="1">
          <mxGeometry x="250" y="1700" width="340" height="156" as="geometry" />
        </mxCell>
      </root>
    </mxGraphModel>
  </diagram>
</mxfile>
